<svg xmlns="http://www.w3.org/2000/svg" width="33.93" height="33.93" viewBox="0 0 33.93 33.93">
    <defs>
        <style>
            .cls-1{opacity:1}
        </style>
    </defs>
    <g id="Group_304" class="cls-1" data-name="Group 304" transform="translate(-798.393 -134.441)">
        <g id="Group_302" data-name="Group 302">
            <path id="Path_614" d="M815.358 168.371a16.965 16.965 0 1 1 16.965-16.965 16.984 16.984 0 0 1-16.965 16.965zm0-32.3a15.334 15.334 0 1 0 15.334 15.334 15.353 15.353 0 0 0-15.334-15.333z" class="cls-2" data-name="Path 614"/>
        </g>
        <g id="Group_303" data-name="Group 303">
            <path id="Path_615" d="M814.406 160.329a1.234 1.234 0 0 1 .333-.873 1.18 1.18 0 0 1 .9-.356 1.209 1.209 0 0 1 .913.356 1.222 1.222 0 0 1 .339.873 1.142 1.142 0 0 1-.339.841 1.221 1.221 0 0 1-.913.344 1.191 1.191 0 0 1-.9-.344 1.152 1.152 0 0 1-.333-.841zm1.976-5.059h-1.674l-.09-15.832h1.869z" class="cls-2" data-name="Path 615"/>
        </g>
    </g>
</svg>
